<svg xmlns="http://www.w3.org/2000/svg" width="158.632" height="105.27" viewBox="0 0 158.632 105.27"><defs><style>.a,.b,.c,.d,.e,.f{fill:none;stroke-miterlimit:10;}.a,.b{stroke:#0af;}.b{stroke-linecap:round;stroke-linejoin:round;}.c,.d,.e{stroke:#20e8ff;}.c{stroke-dasharray:5 2;}.d{stroke-dasharray:4 5;}.e{stroke-dasharray:14 5;}.f{stroke:#0ef;}</style></defs><g transform="translate(0.5 0.5)"><path class="a" d="M54.5,67.907H25.454c-7.978,0-14.636-3.061-19.255-8.852a27.66,27.66,0,0,1-4.67-8.866A32.32,32.32,0,0,1,0,40.317,27.28,27.28,0,0,1,27.226,13.045a29.634,29.634,0,0,1,4.091.319,28.194,28.194,0,0,1,9.966-9.682A27.973,27.973,0,0,1,82,20.227a24.526,24.526,0,0,1,32.59,23.181c0,.393-.007.782-.021,1.155A14.888,14.888,0,0,0,110.5,44a15.216,15.216,0,0,0-5,.864A17.313,17.313,0,0,0,74.089,40.59a15.446,15.446,0,0,0-2.545-.182A17,17,0,0,0,54.68,57.5a19.534,19.534,0,0,0,2.918,10.4C56.484,67.9,55.472,67.907,54.5,67.907Z" transform="translate(4.727)"/><line class="b" y2="18.59" transform="translate(63.953 73.634)"/><circle class="a" cx="5.954" cy="5.954" r="5.954" transform="translate(57.999 92.225)"/><circle class="a" cx="5.954" cy="5.954" r="5.954" transform="translate(3.955 88.407)"/><path class="b" d="M68,186.408H85.227a2.541,2.541,0,0,0,2.545-2.545V163" transform="translate(-52.137 -92.093)"/><circle class="a" cx="5.954" cy="5.954" r="5.954" transform="translate(134.041 87.952)"/><path class="b" d="M277,194.045H236.955a2.444,2.444,0,0,1-2.454-2.454V177" transform="translate(-142.957 -99.729)"/><circle class="c" cx="9.909" cy="9.909" r="9.909" transform="translate(0 84.452)"/><circle class="c" cx="9.909" cy="9.909" r="9.909" transform="translate(130.087 83.998)"/><circle class="a" cx="5.954" cy="5.954" r="5.954" transform="translate(141.769 18.227)"/><path class="b" d="M327.636,73.3v8.227a2.444,2.444,0,0,1-2.454,2.454H301.5" transform="translate(-179.503 -43.165)"/><circle class="d" cx="9.909" cy="9.909" r="9.909" transform="translate(137.814 14.272)"/><circle class="e" cx="3.091" cy="3.091" r="3.091" transform="translate(60.862 95.088)"/><path class="f" d="M219.617,89.782a15.2,15.2,0,0,0-5,.864,17.313,17.313,0,0,0-31.408-4.273,15.612,15.612,0,0,0-2.545-.182,17.053,17.053,0,0,0-16.863,17.09c0,8.182,5,17.272,15.772,17.272h39.135c11.091,0,16.09-6.954,16.09-15.363A15.345,15.345,0,0,0,219.617,89.782Z" transform="translate(-104.392 -45.783)"/></g></svg>