<svg xmlns="http://www.w3.org/2000/svg" width="216.698" height="107.543" viewBox="0 0 216.698 107.543"><defs><style>.a,.b,.f{fill:none;stroke-miterlimit:10;}.a{stroke:#0af;}.b{stroke:#0ef;}.c,.d,.e{fill:#5a9fff;font-family:OpenSans-Light, Open Sans;font-weight:300;}.c{font-size:5px;}.d{font-size:3px;}.e{font-size:4px;}.f{stroke:#20e8ff;stroke-width:0.5px;stroke-dasharray:2 2;}</style></defs><g transform="translate(0.25)"><path class="a" d="M196.07,35.8V52.985h0A22.374,22.374,0,0,1,218.4,75.255l.064,42.029a22.374,22.374,0,0,1-22.27,22.334h0a22.374,22.374,0,0,1-22.334-22.27L173.8,75.319a22.41,22.41,0,0,1,19.373-22.141" transform="translate(-89.185 -35.8)"/><line class="a" y1="0.064" x2="44.539" transform="translate(85.066 45.376)"/><path class="b" d="M207.552,89.6h0a1.348,1.348,0,0,1-1.352-1.287V76.152a1.348,1.348,0,0,1,1.287-1.352h0a1.348,1.348,0,0,1,1.352,1.287V88.252A1.306,1.306,0,0,1,207.552,89.6Z" transform="translate(-100.731 -49.698)"/><text class="c" transform="translate(175.963 52.793)"><tspan x="0" y="0">Social Media</tspan></text><text class="d" transform="translate(150.452 26.301)"><tspan x="0" y="0">Roi</tspan></text><text class="c" transform="translate(156.979 79.857)"><tspan x="0" y="0">Viral Video</tspan></text><text class="e" transform="translate(21.827 99.327)"><tspan x="0" y="0">Blog</tspan></text><text class="c" transform="translate(50.795 21.223)"><tspan x="0" y="0">SEO</tspan></text><text class="d" transform="translate(49.185 71.034)"><tspan x="0" y="0">Email</tspan></text><text class="c" transform="translate(148.891 101.934)"><tspan x="0" y="0">Website</tspan></text><path class="f" d="M75.619,189.641H60.993a4.948,4.948,0,0,1-4.793-5.02h0a4.948,4.948,0,0,1,4.793-5.02H75.57a4.948,4.948,0,0,1,4.793,5.02h0A4.874,4.874,0,0,1,75.619,189.641Z" transform="translate(-40.533 -85.823)"/><path class="f" d="M122.466,68.127h-15.1a5.133,5.133,0,0,1-4.965-5.213h0a5.133,5.133,0,0,1,4.965-5.213h15.1a5.133,5.133,0,0,1,4.965,5.213h0A5.065,5.065,0,0,1,122.466,68.127Z" transform="translate(-57.298 -42.575)"/><path class="f" d="M115.76,144.245H103.222a4.154,4.154,0,0,1-4.122-4.122h0A4.154,4.154,0,0,1,103.222,136H115.76a4.154,4.154,0,0,1,4.122,4.122h0A4.1,4.1,0,0,1,115.76,144.245Z" transform="translate(-54.447 -69.516)"/><path class="f" d="M292.576,195.586H271.143a6.291,6.291,0,0,1-6.243-6.243h0a6.291,6.291,0,0,1,6.243-6.243h21.433a6.291,6.291,0,0,1,6.243,6.243h0A6.249,6.249,0,0,1,292.576,195.586Z" transform="translate(-121.65 -88.293)"/><text class="c" transform="translate(5.651 38.665)"><tspan x="0" y="0">Online Promotion</tspan></text><path class="f" d="M62.428,96.786H8.956c-3.091,0-5.656-2.832-5.656-6.243h0c0-3.411,2.566-6.243,5.656-6.243H62.428c3.091,0,5.656,2.832,5.656,6.243h0A5.976,5.976,0,0,1,62.428,96.786Z" transform="translate(-3.3 -53.084)"/><path class="f" d="M281.639,75.955H269.451c-1.94,0-3.551-2.19-3.551-4.827h0c0-2.638,1.611-4.827,3.551-4.827h12.189c1.94,0,3.551,2.19,3.551,4.827h0C285.153,73.815,283.58,75.955,281.639,75.955Z" transform="translate(-122.006 -45.253)"/><path class="f" d="M346.662,119.486H309.933c-2.914,0-5.333-2.832-5.333-6.243h0c0-3.411,2.419-6.243,5.333-6.243h36.729c2.914,0,5.333,2.832,5.333,6.243h0C352,116.719,349.576,119.486,346.662,119.486Z" transform="translate(-135.798 -61.173)"/><path class="f" d="M313.089,160.958H282.331c-2.684,0-4.831-2.639-4.831-5.793v-.772c0-3.218,2.2-5.793,4.831-5.793h30.758c2.684,0,4.831,2.639,4.831,5.793v.772C317.92,158.319,315.719,160.958,313.089,160.958Z" transform="translate(-126.14 -75.999)"/><line class="b" x2="16.091" transform="translate(72.515 21.047)"/><line class="b" x2="11.585" transform="translate(69.941 70.606)"/><line class="b" x2="12.365" transform="translate(68.517 37.781)"/><line class="b" x2="43.767" transform="translate(43.552 98.926)"/><line class="b" x2="11.585" transform="translate(129.798 25.552)"/><line class="b" x2="14.804" transform="translate(133.016 78.974)"/><line class="b" x2="32.825" transform="translate(132.373 51.941)"/><line class="b" x2="14.804" transform="translate(125.937 101.501)"/></g></svg>