<svg xmlns="http://www.w3.org/2000/svg" width="170.604" height="99.169" viewBox="0 0 170.604 99.169"><defs><style>.a,.b,.c,.d,.e{fill:none;stroke-miterlimit:10;}.a,.d{stroke:#0af;}.a,.b{stroke-linecap:round;stroke-linejoin:round;}.b,.c,.e{stroke:#20e8ff;}.e{stroke-dasharray:5 5;}</style></defs><g transform="translate(0.5 0.502)"><path class="a" d="M191.764,142.62H153.309a6.431,6.431,0,0,1-6.409-6.409v-38.4a6.431,6.431,0,0,1,6.409-6.409h38.4a6.431,6.431,0,0,1,6.409,6.409v38.4A6.386,6.386,0,0,1,191.764,142.62Z" transform="translate(-88.741 -61.457)"/><path class="a" d="M158.4,56.655V51.729a16.685,16.685,0,0,1,17.268-16.844h4.661A16.686,16.686,0,0,1,197.6,51.729v13.03" transform="translate(-94.15 -34.869)"/><path class="a" d="M195.822,132.561a3.787,3.787,0,0,0-3.814-3.761,3.75,3.75,0,0,0-2.013,6.886v8.952a2.119,2.119,0,0,0,4.237,0v-8.952A3.494,3.494,0,0,0,195.822,132.561Z" transform="translate(-108.213 -79.046)"/><line class="b" x1="37.607" transform="translate(13.878 49.753)"/><circle class="c" cx="6.939" cy="6.939" r="6.939" transform="translate(0 42.814)"/><circle class="d" cx="6.939" cy="6.939" r="6.939" transform="translate(9.375 5.949)"/><path class="a" d="M68,72.3V87.078a2.961,2.961,0,0,0,2.966,2.966H95.279" transform="translate(-51.633 -52.474)"/><circle class="e" cx="11.547" cy="11.547" r="11.547" transform="translate(4.767 1.341)"/><circle class="d" cx="6.939" cy="6.939" r="6.939" transform="translate(9.375 79.68)"/><path class="a" d="M68,169.544V154.766a2.961,2.961,0,0,1,2.966-2.966H95.279" transform="translate(-51.633 -89.864)"/><circle class="e" cx="11.547" cy="11.547" r="11.547" transform="translate(4.767 75.072)"/><circle class="e" cx="3.602" cy="3.602" r="3.602" transform="translate(3.337 46.152)"/><circle class="c" cx="6.939" cy="6.939" r="6.939" transform="translate(155.726 42.814)"/><circle class="d" cx="6.939" cy="6.939" r="6.939" transform="translate(146.351 5.949)"/><path class="a" d="M302.179,72.3V87.078a2.961,2.961,0,0,1-2.966,2.966H274.9" transform="translate(-148.942 -52.474)"/><circle class="e" cx="11.547" cy="11.547" r="11.547" transform="translate(141.742 1.341)"/><circle class="d" cx="6.939" cy="6.939" r="6.939" transform="translate(146.351 79.68)"/><path class="a" d="M302.179,169.544V154.766a2.961,2.961,0,0,0-2.966-2.966H274.9" transform="translate(-148.942 -89.864)"/><circle class="e" cx="11.547" cy="11.547" r="11.547" transform="translate(141.742 75.072)"/><circle class="e" cx="3.602" cy="3.602" r="3.602" transform="translate(159.063 46.152)"/></g></svg>