<svg xmlns="http://www.w3.org/2000/svg" width="174.501" height="104.579" viewBox="0 0 174.501 104.579"><defs><style>.a,.b{fill:none;stroke-linecap:round;stroke-linejoin:round;stroke-miterlimit:10;}.a{stroke:#0af;}.b{stroke:#0ef;stroke-dasharray:5 5;}</style></defs><g transform="translate(0.5 0.5)"><path class="a" d="M14,14V114.735a2.853,2.853,0,0,0,2.844,2.844H187.5" transform="translate(-14 -14)"/><circle class="a" cx="6.874" cy="6.874" r="6.874" transform="translate(15.169 56.554)"/><circle class="b" cx="7.774" cy="7.774" r="7.774" transform="translate(56.269 25.219)"/><circle class="a" cx="6.723" cy="6.723" r="6.723" transform="translate(90.888 69.632)"/><circle class="b" cx="7.774" cy="7.774" r="7.774" transform="translate(151.837 18.583)"/><circle class="a" cx="4.883" cy="4.883" r="4.883" transform="translate(59.161 28.111)"/><line class="a" y1="18.962" x2="27.021" transform="translate(28.917 38.398)"/><line class="a" x2="20.289" y2="29.96" transform="translate(70.917 40.341)"/><line class="a" y1="39.061" x2="47.31" transform="translate(105.428 33.468)"/><circle class="a" cx="4.883" cy="4.883" r="4.883" transform="translate(154.729 21.474)"/><path class="b" d="M23.1,113.405,76.193,74.581,90.6,95.107,175.933,24" transform="translate(-18.786 -19.259)"/></g></svg>