<svg xmlns="http://www.w3.org/2000/svg" xmlns:xlink="http://www.w3.org/1999/xlink" width="117.963" height="108.298" viewBox="0 0 117.963 108.298"><defs><style>.a{fill:#f5f5fc;}.b,.d,.e,.g,.h{fill:none;stroke-miterlimit:10;}.b,.g,.h{stroke:#0ef;}.b,.d{stroke-linejoin:round;}.c{fill:#0af;}.d,.e{stroke:#0af;}.e,.h{stroke-linecap:round;}.f{fill:#0ef;}.i{clip-path:url(#a);}</style><clipPath id="a"><rect class="a" width="21.15" height="27.331"/></clipPath></defs><g transform="translate(0.5 0.5)"><path class="b" d="M103.311,132.637l-37.7,0a2.94,2.94,0,0,1-2.914-2.914v-83.8A2.94,2.94,0,0,1,65.614,43l34.393.006c0,43.866,0,70.358,0,85.054C100.006,129.684,99.638,132.637,103.311,132.637Z" transform="translate(-62.7 -25.338)"/><line class="b" x2="37.464" transform="translate(0.132 24.152)"/><line class="b" x2="37.464" transform="translate(0.132 103.011)"/><line class="b" x2="4.945" transform="translate(23.798 105.174)"/><circle class="c" cx="0.53" cy="0.53" r="0.53" transform="translate(19.516 20.399)"/><circle class="c" cx="0.53" cy="0.53" r="0.53" transform="translate(63.241 2.307)"/><path class="d" d="M213.224,67.491v39.888a2.94,2.94,0,0,1-2.914,2.914h-59.7a2.94,2.94,0,0,1-2.914-2.914V5.914A2.94,2.94,0,0,1,150.614,3h59.7a2.94,2.94,0,0,1,2.914,2.914V30.443" transform="translate(-110.383 -3)"/><line class="d" x2="65.524" transform="translate(37.53 6.491)"/><line class="d" x2="65.524" transform="translate(37.707 98.462)"/><line class="e" x2="4.371" transform="translate(39.929 42.52)"/><line class="e" x2="9.995" transform="translate(39.929 50.91)"/><line class="e" x2="7.639" transform="translate(39.929 59.342)"/><circle class="d" cx="2.782" cy="2.782" r="2.782" transform="translate(67.688 100.273)"/><path class="f" d="M120.568,50.483h-7.727a.442.442,0,0,1-.442-.442h0a.442.442,0,0,1,.442-.442h7.727a.443.443,0,0,1,.442.442h0A.443.443,0,0,1,120.568,50.483Z" transform="translate(-90.455 -29.024)"/><path class="c" d="M120.568,50.483h-7.727a.442.442,0,0,1-.442-.442h0a.442.442,0,0,1,.442-.442h7.727a.443.443,0,0,1,.442.442h0A.443.443,0,0,1,120.568,50.483Z" transform="translate(-46.731 -47.116)"/><path class="g" d="M303.4,86.9l10.155,10.155a1.759,1.759,0,0,1,0,2.517L303.4,109.727" transform="translate(-197.122 -49.855)"/><path class="g" d="M237.685,109.627,227.53,99.472a1.759,1.759,0,0,1,0-2.517L237.685,86.8" transform="translate(-154.455 -49.799)"/><line class="h" x1="17.661" y2="30.819" transform="translate(86.894 31.658)"/><g transform="translate(10.155 64.729)"><path class="a" d="M95.1,185.88a1.677,1.677,0,0,0,1.678,1.678h1.545v3.532a1.093,1.093,0,0,0,1.1,1.1h1.5a1.093,1.093,0,0,0,1.1-1.1v-3.532h3.709v3.532a1.093,1.093,0,0,0,1.1,1.1h1.5a1.093,1.093,0,0,0,1.1-1.1v-3.532h1.325a1.677,1.677,0,0,0,1.678-1.678V174.4H95.1Z" transform="translate(-90.95 -163.45)"/><path class="a" d="M138.243,174.4h-.486a1.47,1.47,0,0,0-1.457,1.457v8.3a1.47,1.47,0,0,0,1.457,1.457h.486a1.47,1.47,0,0,0,1.457-1.457v-8.3A1.47,1.47,0,0,0,138.243,174.4Z" transform="translate(-113.958 -163.45)"/><path class="a" d="M87.643,174.4h-.486a1.47,1.47,0,0,0-1.457,1.457v8.3a1.47,1.47,0,0,0,1.457,1.457h.486a1.47,1.47,0,0,0,1.457-1.457v-8.3A1.47,1.47,0,0,0,87.643,174.4Z" transform="translate(-85.7 -163.45)"/><path class="a" d="M112.541,159.711v-.4A7.772,7.772,0,0,0,108.3,152.6c-.088-.044,1.545-2.561,1.545-2.561l-.574-.353a23.157,23.157,0,0,1-1.678,2.561,9.869,9.869,0,0,0-7.55,0c-.088.044-1.5-2.649-1.5-2.649l-.618.309s.486.927,1.457,2.649A7.678,7.678,0,0,0,95.1,159.27v.4C102.518,159.711,104.372,159.711,112.541,159.711Zm-4.857-4.592a.883.883,0,1,1-.883.883A.886.886,0,0,1,107.684,155.119Zm-8.213,0a.883.883,0,1,1-.883.883A.886.886,0,0,1,99.471,155.119Z" transform="translate(-90.95 -149.6)"/></g><g transform="translate(59.872 65.48)"><g transform="translate(0 0)"><g class="i"><path class="a" d="M212.891,155.606a5.153,5.153,0,0,0,1.5-4.106,7.089,7.089,0,0,0-4.327,1.943,5.132,5.132,0,0,0-1.545,4.018,5.793,5.793,0,0,0,4.371-1.854Zm3.135,10.464a6.077,6.077,0,0,1,2.826-5.122,6.046,6.046,0,0,0-4.769-2.649c-2.031-.221-3.93,1.236-4.989,1.236-1.016,0-2.605-1.192-4.283-1.148a6.4,6.4,0,0,0-5.387,3.356c-2.3,4.106-.574,10.155,1.634,13.511,1.1,1.634,2.384,3.444,4.106,3.4,1.634-.044,2.252-1.1,4.283-1.1,1.987,0,2.561,1.1,4.283,1.06,1.766-.044,2.914-1.678,3.974-3.312a17.025,17.025,0,0,0,1.81-3.8,5.952,5.952,0,0,1-3.488-5.431Zm0,0" transform="translate(-198.321 -151.412)"/></g></g></g></g></svg>