<svg xmlns="http://www.w3.org/2000/svg" width="557.239" height="561.625" viewBox="0 0 557.239 561.625"><defs><style>.a{font-size:40px;font-family:OpenSans-Bold, Open Sans;font-weight:700;letter-spacing:0.01em;}.b,.c{fill:none;stroke-width:2px;}.b{stroke:#5bb1ff;}.c{stroke:#f15170;}</style></defs><g transform="translate(-3.092 1.337)"><text class="a" transform="translate(240.998 219.345)"><tspan x="0" y="0">Why </tspan><tspan x="0" y="55">choose </tspan><tspan x="0" y="110">us?</tspan></text><g transform="translate(258.688 558.994) rotate(-135)"><path class="b" d="M0,0S23.38,80.246,111.84,115" transform="translate(0 309.699)"/><path class="b" d="M111.84,0S88.46,80.246,0,115" transform="translate(254 309.699)"/><path class="b" d="M0,163.739s13.354-45.728,57.269-86.564S168.418,6.47,181.853.394c12.421-5.618-52,50.8-36.012,47.567a239.212,239.212,0,0,1,47.381-4.533C318.962,52.214,359.4,163.739,359.4,163.739" transform="translate(0.128 0)"/></g><g transform="translate(194.229 65.949)"><path class="c" d="M.092,142.5S-4.222,84.117,46.236,37C95.863-9.353,156.811.983,156.811.983" transform="translate(102.22 0) rotate(43)"/><path class="c" d="M.092,142.5S-4.222,84.117,46.236,37C95.863-9.353,156.811.983,156.811.983" transform="translate(114.684 385.793) rotate(-137)"/></g></g></svg>